<?xml version="1.0" encoding="utf-8"?>
<!-- Generator: Adobe Illustrator 27.3.1, SVG Export Plug-In . SVG Version: 6.00 Build 0)  -->
<svg version="1.1" id="Camada_1" xmlns="http://www.w3.org/2000/svg" xmlns:xlink="http://www.w3.org/1999/xlink" x="0px" y="0px"
	 viewBox="0 0 649.8 750.3" style="enable-background:new 0 0 649.8 750.3;" xml:space="preserve">
<style type="text/css">
	.st0{fill:#00989D;}
	.st1{fill:#005889;}
</style>
<g>
	<g>
		<path class="st0" d="M545.1,359.2c-15.1,3.8-23.3,2.9-38,4.4c-33.8,3.2-56.1,5.3-72,14.9c-8.1,4.9-20.6,16-29,39.6
			c0.9,3,2,6.1,3.2,9.2c4.5-10,10.2-19.6,16.5-27.7c20.1-26.3,57.5-29.9,86.4-30.6c28.8-1.1,58.5-2.4,96.8-28.2
			c-0.8-7.5,0.4-15.8-3.5-22.4C593.9,342.7,574.3,351.9,545.1,359.2z"/>
		<path class="st0" d="M485.8,513c-1.9,1.3-0.8,7.8-1.8,10.8C464.9,611,347.6,486.3,320.5,454c-2.9-3.3-5.4-5.9-7-7.7
			c18.7-36.4,63.8-94.4,13.3-120.2c-24.7-10-60.8,0.6-66.3,29.9c-6.3,27.9,9.1,59.3,24.7,83.6c-22.9,16.1-45,36.5-49,64.5
			c-3.7,21.5,4.8,41,19.4,56.8c24.3,26.8,68.1,19.4,94.7-0.1c10.1-7.6,18.7-16.9,25.9-27.8c21.1,14.1,47.1,29.5,72.3,27.7
			C473.8,559.9,487.3,537.4,485.8,513z M274.7,378.8c-8.4-25.6-1.5-51.4,28.2-54.3c26.9-2.5,40.2,28.4,36.5,51
			c-2.9,17.3-9,24.8-15.8,37.9c-5.1,9.2-9.2,16.2-16,25.6C290.8,416.8,282,401.3,274.7,378.8z M358.6,546.5
			c-42,32.6-106,4.3-104.6-50.3c0.4-18.4,17.7-45.3,32.5-54.6c4.2,6.3,8.9,12.8,13.7,19c21.1,26,47.2,51.7,73.7,71
			C369.5,537.3,364.4,542.2,358.6,546.5z"/>
		<path class="st0" d="M372.9,508.2c2.8,2.5,5.4,4.8,7.9,7C378.3,513,375.6,510.7,372.9,508.2z"/>
		<path class="st0" d="M360.9,497c0.4,0.4,0.8,0.7,1.2,1.1C361.7,497.8,361.3,497.4,360.9,497z"/>
		<rect x="485" y="513.1" class="st0" width="0" height="0"/>
		<path class="st0" d="M298.2,458c-0.7-0.9-1.4-1.8-2.1-2.8C296.8,456.1,297.5,457,298.2,458z"/>
		<path class="st0" d="M254.2,493c-0.1,0.5-0.1,1.1-0.1,1.6C254.1,494,254.1,493.5,254.2,493z"/>
		<path class="st0" d="M237,500.1c-0.2,0.9-0.4,1.9-0.5,2.8C236.6,502,236.8,501,237,500.1z"/>
		<g>
			<path class="st1" d="M634.3,285.7c-29.5-72.4-106.4-105.9-185-105.2c0,0-94.7,0-94.7,0v2.4c9.4,5.3,10.4,61.9,10.5,76.5
				c-1,40.8,2.8,194.3-3.3,231.9c-0.2,1.3-0.4,2.5-0.6,3.8c0.9,0.9,1.9,1.8,2.8,2.7c6.6,6.2,12.6,11.7,18.1,16.3
				c14.5-26.6,10.1-36.8,15-66.2c0.8-4.3,3.9-20.7,5.4-25.7c1.2-1,0-208.8,0.4-210.1c1.3-31.7,20-29.4,46.4-29.2
				c27.1,0,50.7,4.6,70.8,13.9c66.9,29.3,94.7,104.6,88,172.1c-4.9,57.6-38.1,110.3-93.2,132.4c-8.5,3.5-17.6,6.1-27.3,8
				c0,1.2,0.1,2.4,0,3.5c63.4-7.4,123.6-44.1,146.8-102.8C650.9,370.1,650.9,325.5,634.3,285.7z"/>
			<path class="st1" d="M431.6,512.8c-35.1,0.8-28-31.8-28.7-55.4c-5.3,17.4-3.5,20.6-8.2,41c-1.2,4.4-3.3,10.2-7.1,16.7h61.6
				c11.5,0,22.5-0.6,33.1-1.7c0.1-1.1,0.1-2.2,0.1-3.3C467.6,512.9,447.7,512.9,431.6,512.8z"/>
			<path class="st1" d="M296.2,455.4c-0.5-1-0.9,0.9-1.4,1.2c-9.1,14.1-21.1,25.4-35.9,33.7c-2.6,1.7-5.5,1.7-5,5.5
				c17-8.8,32.4-20.6,44.9-34C301.7,460.2,297.3,457.6,296.2,455.4z"/>
			<path class="st1" d="M327.1,193.6c4.1,30.3-22.5,25.3-47.1,10.8c-33-19.3-66.2-29.9-99.6-31.9c-79.1-7-153,51.1-171.7,126
				c-24.3,90.7,29.9,187,121.1,210.9c21.3,5.6,43.2,7,65.7,4.4c13.3-1.5,26.3-4.7,38.9-9.5c2.3-0.3,1.9-2.4,2.4-4.3
				c0.1-0.3-1.3,0.2-1.7,0.3c-8.9,2.6-18.2,4-27.9,4.1c-124.8,1.3-218.6-163.5-156-270.7c20.7-34.2,62.4-57.6,101-54
				c28.4,3.3,52.6,19.8,77,33.8c17.5,9.6,43.8,21.7,62.3,20.6c23.4-0.4,42.7-17.7,36.8-40.7C328.6,193.6,327.1,193.6,327.1,193.6z"
				/>
		</g>
	</g>
</g>
</svg>
