<?xml version="1.0" encoding="utf-8"?>
<!-- Generator: Adobe Illustrator 27.3.1, SVG Export Plug-In . SVG Version: 6.00 Build 0)  -->
<svg version="1.1" id="Layer_2_00000092414485057532596600000005334914417749994636_"
	 xmlns="http://www.w3.org/2000/svg" xmlns:xlink="http://www.w3.org/1999/xlink" x="0px" y="0px" viewBox="0 0 503.9 76.6"
	 style="enable-background:new 0 0 503.9 76.6;" xml:space="preserve">
<style type="text/css">
	.st0{fill:#00989D;}
	.st1{fill:#005889;}
</style>
<g id="Layer_1-2">
	<g>
		<g>
			<g>
				<path class="st0" d="M142.3,48.8h1.8l4.6,10.5l4.6-10.5h1.7v12.6h-1.2V50.3h0l-4.8,11.1h-0.5l-4.9-11.1h0v11.1h-1.2L142.3,48.8
					L142.3,48.8z"/>
				<path class="st0" d="M164.2,48.8h1.2l5.3,12.6h-1.3L168,58h-6.6l-1.4,3.3h-1.2L164.2,48.8L164.2,48.8z M164.8,50.1l-2.9,6.9h5.8
					L164.8,50.1L164.8,50.1z"/>
				<path class="st0" d="M174.6,48.8h3.3c0.2,0,0.4,0,0.7,0c0.3,0,0.6,0,0.9,0.1s0.7,0.2,1,0.3c0.3,0.1,0.6,0.3,0.9,0.6
					s0.5,0.6,0.7,0.9c0.2,0.4,0.3,0.8,0.3,1.4c0,0.6-0.1,1.1-0.3,1.5s-0.5,0.7-0.8,1s-0.7,0.4-1,0.5c-0.4,0.1-0.7,0.2-1.1,0.2l3.7,6
					h-1.3l-3.5-6h-2.2v6h-1.2L174.6,48.8L174.6,48.8z M175.8,54.3h2.5c0.6,0,1.1-0.1,1.5-0.2c0.4-0.2,0.7-0.3,0.9-0.6
					s0.4-0.5,0.4-0.7c0.1-0.3,0.1-0.5,0.1-0.7s0-0.5-0.1-0.7s-0.2-0.5-0.4-0.7c-0.2-0.2-0.5-0.4-0.9-0.6c-0.4-0.2-0.9-0.2-1.5-0.2
					h-2.5V54.3L175.8,54.3z"/>
				<path class="st0" d="M187.3,48.8h1.2v5.5h0.1l6.1-5.5h1.6l-6.4,5.8l6.7,6.8h-1.7l-6.4-6.5h-0.1v6.5h-1.2V48.8z"/>
				<path class="st0" d="M200.3,48.8h7.7v1.1h-6.5v4.5h6.1v1.1h-6.1v4.9h6.8v1.1h-8V48.8L200.3,48.8z"/>
				<path class="st0" d="M215.7,49.9h-4.3v-1.1h9.8v1.1h-4.3v11.5h-1.2L215.7,49.9L215.7,49.9z"/>
				<path class="st0" d="M225.2,48.8h1.2v12.6h-1.2V48.8z"/>
				<path class="st0" d="M232,48.8h1.5l7.6,11h0v-11h1.2v12.6h-1.5l-7.6-11h0v11H232V48.8z"/>
				<path class="st0" d="M258.3,60.5c-0.7,0.4-1.5,0.7-2.3,0.9s-1.6,0.3-2.4,0.3c-1,0-1.8-0.2-2.6-0.5s-1.5-0.8-2.1-1.4
					c-0.6-0.6-1-1.3-1.3-2.1s-0.5-1.7-0.5-2.7s0.2-1.8,0.5-2.6c0.3-0.8,0.8-1.5,1.3-2.1c0.6-0.6,1.2-1,2.1-1.4
					c0.8-0.3,1.7-0.5,2.6-0.5c1.9,0,3.4,0.6,4.5,1.7l-0.9,0.9c-0.2-0.2-0.4-0.4-0.7-0.6c-0.3-0.2-0.6-0.4-0.9-0.5s-0.7-0.2-1-0.3
					c-0.4-0.1-0.7-0.1-1.1-0.1c-0.8,0-1.6,0.1-2.2,0.4c-0.7,0.3-1.2,0.7-1.7,1.2c-0.5,0.5-0.8,1.1-1.1,1.8c-0.2,0.7-0.4,1.4-0.4,2.2
					s0.1,1.5,0.4,2.2c0.2,0.7,0.6,1.3,1.1,1.8c0.5,0.5,1,0.9,1.7,1.2c0.7,0.3,1.4,0.4,2.2,0.4c0.7,0,1.3,0,1.9-0.2s1.1-0.3,1.6-0.6
					v-4.2h-3v-1.1h4.2L258.3,60.5L258.3,60.5z"/>
				<path class="st0" d="M274.4,48.8h1.2l5.3,12.6h-1.3l-1.4-3.3h-6.6l-1.4,3.3H269L274.4,48.8L274.4,48.8z M275,50.1l-2.9,6.9h5.8
					L275,50.1z"/>
				<path class="st0" d="M284.9,48.8h1.5l7.6,11h0v-11h1.2v12.6h-1.5l-7.6-11h0v11h-1.2V48.8z"/>
				<path class="st0" d="M300.6,48.8h3.9c1.1,0,2,0.1,2.8,0.4c0.8,0.3,1.4,0.6,1.9,1s0.9,0.9,1.2,1.4s0.5,1,0.6,1.5
					c0.1,0.5,0.2,0.9,0.3,1.2s0,0.6,0,0.8s0,0.4,0,0.8s-0.1,0.8-0.3,1.2s-0.4,0.9-0.6,1.5c-0.3,0.5-0.7,1-1.2,1.4s-1.1,0.8-1.9,1
					s-1.7,0.4-2.8,0.4h-3.9C300.6,61.4,300.6,48.8,300.6,48.8z M301.8,60.3h2.4c0.8,0,1.6-0.1,2.3-0.3c0.7-0.2,1.4-0.5,1.9-1
					s1-1,1.3-1.6c0.3-0.7,0.5-1.4,0.5-2.3s-0.1-1.7-0.5-2.3c-0.3-0.7-0.7-1.2-1.3-1.6c-0.5-0.4-1.2-0.7-1.9-1s-1.5-0.3-2.3-0.3h-2.4
					V60.3L301.8,60.3z"/>
				<path class="st0" d="M326.7,48.8h1.2l5.3,12.6h-1.3l-1.4-3.3h-6.6l-1.4,3.3h-1.2L326.7,48.8L326.7,48.8z M327.2,50.1l-2.9,6.9
					h5.8L327.2,50.1z"/>
				<path class="st0" d="M337,48.8h3.9c1.1,0,2,0.1,2.8,0.4c0.8,0.3,1.4,0.6,1.9,1s0.9,0.9,1.2,1.4s0.5,1,0.6,1.5
					c0.1,0.5,0.2,0.9,0.3,1.2s0,0.6,0,0.8s0,0.4,0,0.8s-0.1,0.8-0.3,1.2s-0.4,0.9-0.6,1.5c-0.3,0.5-0.7,1-1.2,1.4s-1.1,0.8-1.9,1
					s-1.7,0.4-2.8,0.4H337C337,61.4,337,48.8,337,48.8z M338.1,60.3h2.4c0.8,0,1.6-0.1,2.3-0.3c0.7-0.2,1.4-0.5,1.9-1s1-1,1.3-1.6
					c0.3-0.7,0.5-1.4,0.5-2.3s-0.1-1.7-0.5-2.3c-0.3-0.7-0.7-1.2-1.3-1.6c-0.5-0.4-1.2-0.7-1.9-1s-1.5-0.3-2.3-0.3h-2.4V60.3
					L338.1,60.3z"/>
				<path class="st0" d="M350.6,48.8h1.3l4,11l4.1-11h1.2l-4.8,12.6h-1.2L350.6,48.8L350.6,48.8z"/>
				<path class="st0" d="M365,48.8h7.7v1.1h-6.5v4.5h6.1v1.1h-6.1v4.9h6.8v1.1h-8L365,48.8L365,48.8z"/>
				<path class="st0" d="M377.7,48.8h3.3c0.2,0,0.4,0,0.7,0c0.3,0,0.6,0,0.9,0.1c0.3,0.1,0.7,0.2,1,0.3c0.3,0.1,0.6,0.3,0.9,0.6
					c0.3,0.2,0.5,0.6,0.7,0.9c0.2,0.4,0.3,0.8,0.3,1.4c0,0.6-0.1,1.1-0.3,1.5s-0.5,0.7-0.8,1s-0.7,0.4-1,0.5
					c-0.4,0.1-0.7,0.2-1.1,0.2l3.7,6h-1.3l-3.5-6h-2.2v6h-1.2L377.7,48.8L377.7,48.8z M378.9,54.3h2.5c0.6,0,1.1-0.1,1.5-0.2
					c0.4-0.2,0.7-0.3,0.9-0.6s0.4-0.5,0.4-0.7c0.1-0.3,0.1-0.5,0.1-0.7s0-0.5-0.1-0.7s-0.2-0.5-0.4-0.7c-0.2-0.2-0.5-0.4-0.9-0.6
					c-0.4-0.2-0.9-0.2-1.5-0.2h-2.5V54.3L378.9,54.3z"/>
				<path class="st0" d="M393.2,49.9h-4.3v-1.1h9.8v1.1h-4.3v11.5h-1.2L393.2,49.9L393.2,49.9z"/>
				<path class="st0" d="M402.8,48.8h1.2v12.6h-1.2V48.8z"/>
				<path class="st0" d="M409.8,59c0.3,0.5,0.7,0.9,1.2,1.2c0.5,0.3,1,0.4,1.7,0.4c0.4,0,0.8-0.1,1.1-0.2s0.6-0.3,0.9-0.5
					c0.2-0.2,0.5-0.5,0.6-0.8s0.2-0.6,0.2-1c0-0.4-0.1-0.8-0.3-1.1c-0.2-0.3-0.4-0.5-0.7-0.7s-0.6-0.3-1-0.5
					c-0.4-0.1-0.8-0.3-1.2-0.4s-0.8-0.3-1.2-0.4c-0.4-0.2-0.7-0.4-1-0.7s-0.5-0.6-0.7-1c-0.2-0.4-0.3-0.9-0.3-1.5
					c0-0.6,0.1-1,0.3-1.5s0.5-0.8,0.9-1.1c0.4-0.3,0.8-0.5,1.3-0.7c0.5-0.2,1-0.2,1.5-0.2c0.7,0,1.3,0.1,1.9,0.4s1.1,0.7,1.5,1.2
					l-1,0.7c-0.3-0.4-0.6-0.7-1-0.9s-0.9-0.3-1.4-0.3c-0.4,0-0.7,0-1.1,0.2c-0.3,0.1-0.6,0.2-0.9,0.4c-0.2,0.2-0.5,0.4-0.6,0.7
					s-0.2,0.6-0.2,1c0,0.6,0.2,1.1,0.5,1.5s0.7,0.6,1.2,0.8c0.5,0.2,1,0.4,1.6,0.5s1.1,0.3,1.6,0.6c0.5,0.2,0.9,0.6,1.2,1
					c0.3,0.4,0.5,1.1,0.5,1.8c0,0.6-0.1,1.1-0.3,1.5c-0.2,0.4-0.5,0.8-0.9,1.1s-0.8,0.5-1.2,0.7s-1,0.2-1.5,0.2
					c-0.8,0-1.6-0.1-2.3-0.4s-1.3-0.8-1.8-1.5L409.8,59L409.8,59z"/>
				<path class="st0" d="M421.5,48.8h1.2v12.6h-1.2V48.8z"/>
				<path class="st0" d="M428.2,48.8h1.5l7.6,11h0v-11h1.2v12.6h-1.5l-7.6-11h0v11h-1.2V48.8z"/>
				<path class="st0" d="M454.5,60.5c-0.7,0.4-1.5,0.7-2.3,0.9s-1.6,0.3-2.4,0.3c-1,0-1.8-0.2-2.6-0.5s-1.5-0.8-2-1.4
					c-0.6-0.6-1-1.3-1.3-2.1c-0.3-0.8-0.5-1.7-0.5-2.7s0.2-1.8,0.5-2.6s0.8-1.5,1.3-2.1c0.6-0.6,1.2-1,2-1.4
					c0.8-0.3,1.7-0.5,2.6-0.5c1.9,0,3.4,0.6,4.5,1.7l-0.9,0.9c-0.2-0.2-0.4-0.4-0.7-0.6c-0.3-0.2-0.6-0.4-0.9-0.5
					c-0.3-0.1-0.7-0.2-1-0.3c-0.4-0.1-0.7-0.1-1-0.1c-0.8,0-1.5,0.1-2.2,0.4c-0.7,0.3-1.2,0.7-1.7,1.2s-0.8,1.1-1.1,1.8
					c-0.2,0.7-0.4,1.4-0.4,2.2s0.1,1.5,0.4,2.2c0.2,0.7,0.6,1.3,1.1,1.8s1,0.9,1.7,1.2s1.4,0.4,2.2,0.4c0.7,0,1.3,0,1.9-0.2
					s1.1-0.3,1.6-0.6v-4.2h-3v-1.1h4.2L454.5,60.5L454.5,60.5z"/>
			</g>
			<g>
				<g>
					<path class="st1" d="M240.8,22.3c0-0.6,0-1.2,0.1-1.8s0.1-1,0.1-1.5c0.1-0.4,0.1-0.7,0.2-1c0.1-0.2,0.1-0.3,0.2-0.3v-0.1h-3.5
						v0.1c0.1,0,0.1,0.1,0.2,0.3c0.1,0.2,0.1,0.6,0.2,1c0.1,0.4,0.1,0.9,0.1,1.5c0,0.5,0.1,1.1,0.1,1.8v10.6c0,0.7,0,1.2-0.1,1.8
						s-0.1,1-0.1,1.5c-0.1,0.4-0.1,0.7-0.2,0.9s-0.1,0.3-0.2,0.3v0.1h3.5v-0.1c-0.1,0-0.1-0.1-0.2-0.3s-0.1-0.5-0.2-0.9
						c-0.1-0.4-0.1-0.9-0.1-1.5c0-0.5-0.1-1.2-0.1-1.8C240.8,32.9,240.8,22.3,240.8,22.3z"/>
					<path class="st1" d="M267,24.9c0.6,0,1.2,0,1.8,0.1c0.5,0,1,0.1,1.4,0.1c0.4,0.1,0.8,0.1,1,0.2c0.2,0.1,0.3,0.1,0.3,0.2h0.1
						v-1.4h-0.1c0,0.1-0.1,0.1-0.3,0.2s-0.5,0.1-1,0.2c-0.4,0.1-0.9,0.1-1.4,0.1c-0.5,0-1.1,0.1-1.8,0.1h-0.4v-5.2
						c0-0.5,0.1-0.9,0.4-1.3c0.2-0.3,0.7-0.5,1.3-0.5h0.9c0.7,0,1.5,0.1,2.1,0.2c0.7,0.1,1.3,0.3,1.8,0.6c0.5,0.3,0.9,0.6,1.3,0.9
						c0.3,0.4,0.6,0.8,0.7,1.2l0.1,0l-0.8-3h-10.7v0.1c0.1,0,0.1,0.1,0.2,0.4c0.1,0.2,0.1,0.5,0.2,1c0.1,0.4,0.1,0.9,0.1,1.4
						c0,0.5,0.1,1.1,0.1,1.8v10.6c0,0.7,0,1.2-0.1,1.8s-0.1,1-0.1,1.5c-0.1,0.4-0.1,0.7-0.2,0.9s-0.1,0.3-0.2,0.3v0.1h11.6l0.7-4.2
						l-0.1,0c-0.1,0.6-0.4,1.1-0.8,1.6c-0.4,0.5-1,0.9-1.6,1.3c-0.6,0.4-1.3,0.7-2.1,0.9c-0.8,0.2-1.5,0.3-2.3,0.3h-0.9
						c-0.6,0-1.1-0.2-1.3-0.5c-0.2-0.3-0.4-0.7-0.4-1.3V24.9L267,24.9L267,24.9z"/>
					<path class="st1" d="M187.3,24.9c0.6,0,1.2,0,1.8,0.1c0.6,0,1,0.1,1.4,0.1c0.4,0.1,0.8,0.1,1,0.2c0.2,0.1,0.3,0.1,0.3,0.2h0.1
						v-1.4h-0.1c0,0.1-0.1,0.1-0.3,0.2s-0.6,0.1-1,0.2c-0.4,0.1-0.9,0.1-1.4,0.1c-0.6,0-1.1,0.1-1.8,0.1h-0.4v-5.2
						c0-0.5,0.1-0.9,0.4-1.3c0.2-0.3,0.7-0.5,1.3-0.5h0.9c0.7,0,1.4,0.1,2.1,0.2c0.7,0.1,1.3,0.3,1.8,0.6c0.5,0.3,0.9,0.6,1.3,0.9
						c0.3,0.4,0.6,0.8,0.7,1.2l0.1,0l-0.8-3H184v0.1c0.1,0,0.1,0.1,0.2,0.4c0.1,0.2,0.1,0.5,0.2,1c0.1,0.4,0.1,0.9,0.1,1.4
						c0,0.5,0.1,1.1,0.1,1.8v10.6c0,0.7,0,1.2-0.1,1.8s-0.1,1-0.1,1.5c-0.1,0.4-0.1,0.7-0.2,0.9s-0.1,0.3-0.2,0.3v0.1h11.6l0.7-4.2
						l-0.1,0c-0.1,0.6-0.4,1.1-0.8,1.6c-0.4,0.5-1,0.9-1.6,1.3c-0.6,0.4-1.3,0.7-2.1,0.9s-1.5,0.3-2.3,0.3h-0.9
						c-0.6,0-1.1-0.2-1.3-0.5c-0.2-0.3-0.4-0.7-0.4-1.3V24.9L187.3,24.9L187.3,24.9z"/>
					<path class="st1" d="M144.4,21.6c-0.8,1-1.4,2.2-1.7,3.4c-0.3,1.2-0.4,2.5-0.3,3.8c0.1,1.3,0.6,2.6,1.3,3.8
						c0.7,1.2,1.6,2.2,2.6,3c1.1,0.8,2.2,1.3,3.5,1.7c1.2,0.3,2.5,0.4,3.8,0.3c1.3-0.2,2.6-0.6,3.8-1.3c0.9-0.5,1.7-1.2,2.4-1.9
						c0.7-0.8,1.2-1.6,1.6-2.5l-0.9-0.5c-0.2,1-0.6,2-1.1,2.8c-0.5,0.8-1.2,1.5-2.1,2c-0.9,0.5-1.9,0.8-3,0.9
						c-1.1,0-2.1-0.2-3.2-0.6c-1.1-0.4-2.1-1.1-3-1.9c-0.9-0.8-1.8-1.8-2.5-3c-0.7-1.2-1.1-2.4-1.4-3.6c-0.2-1.3-0.3-2.5-0.1-3.6
						c0.1-1.1,0.5-2.1,1.1-3.1c0.6-0.9,1.3-1.6,2.2-2.2c0.9-0.5,1.9-0.8,2.9-0.8c1.1,0,2.1,0.1,3.1,0.5c1,0.4,2,1,2.9,1.7
						c0.9,0.7,1.8,1.7,2.5,2.7l1.6-1.6c-0.7-1-1.6-1.8-2.7-2.5c-1-0.6-2.1-1.1-3.3-1.3c-1.1-0.2-2.3-0.3-3.5-0.1
						c-1.2,0.2-2.4,0.6-3.5,1.2C146.2,19.7,145.2,20.5,144.4,21.6"/>
					<path class="st1" d="M214.8,36.2c-0.5-0.9-1.1-2-1.6-3.5l-5.8-15h-0.1l-6,17.1c-0.1,0.3-0.2,0.6-0.4,0.9
						c-0.2,0.3-0.4,0.6-0.6,0.9c-0.2,0.3-0.5,0.5-0.7,0.7c-0.2,0.2-0.5,0.3-0.7,0.3v0.1h3.4v-0.1c-0.4,0-0.7-0.3-0.9-0.8
						c-0.1-0.5-0.1-1.2,0.2-2l1.6-4.5h6.8l1.1,2.8c0.2,0.6,0.4,1.2,0.5,1.7c0.1,0.5,0.2,1,0.3,1.4c0,0.4,0.1,0.8,0,1
						c0,0.2-0.1,0.3-0.2,0.3v0.1h4.4v-0.1C215.7,37.5,215.3,37.1,214.8,36.2L214.8,36.2z M203,30.1l3.2-9.1l3.5,9.1H203z"/>
					<path class="st1" d="M258,21.9c0.2-0.7,0.5-1.3,0.9-1.9c0.3-0.5,0.7-0.9,1-1.3c0.3-0.3,0.6-0.6,0.9-0.7s0.4-0.2,0.5-0.2v-0.1
						h-3.8v0.1c0.1,0,0.2,0.1,0.3,0.2s0.2,0.4,0.3,0.7c0.1,0.3,0.1,0.7,0.1,1.3c0,0.5-0.1,1.2-0.3,1.9l-4.4,12.4l-4.6-12
						c-0.2-0.6-0.4-1.2-0.5-1.7c-0.1-0.5-0.2-1-0.3-1.5c0-0.4,0-0.8,0-1c0-0.2,0.1-0.3,0.1-0.3v-0.1h-4.4v0.1c0.1,0,0.3,0.1,0.5,0.3
						c0.2,0.2,0.4,0.5,0.7,1c0.2,0.4,0.5,1,0.8,1.5c0.3,0.6,0.6,1.3,0.8,2l5.8,15h0.1L258,21.9L258,21.9z"/>
					<path class="st1" d="M225.6,18.3c0.1,0.3,0.2,0.8,0.2,1.3V33c0,0.7,0,1.2-0.1,1.8s-0.1,1-0.1,1.4c-0.1,0.4-0.1,0.7-0.2,1
						s-0.1,0.3-0.2,0.3v0.1h3.5v-0.1c-0.1,0-0.1-0.1-0.2-0.3s-0.1-0.5-0.2-1c-0.1-0.4-0.1-0.9-0.1-1.4c0-0.5-0.1-1.2-0.1-1.8V19.5
						c0-0.5,0.1-0.9,0.1-1.3c0.1-0.3,0.4-0.5,0.8-0.5c0.7,0,1.5,0.1,2.1,0.3c0.7,0.2,1.3,0.5,1.9,0.9c0.6,0.4,1,0.9,1.4,1.4
						c0.4,0.5,0.7,1.2,0.9,1.8l0.1,0l-1.2-4.5h-14.6l-1.3,4.5l0.1,0c0.2-0.7,0.5-1.3,0.9-1.8c0.4-0.5,0.9-1,1.4-1.4
						c0.6-0.4,1.2-0.7,1.9-0.9c0.7-0.2,1.4-0.3,2.1-0.3C225.2,17.8,225.5,18,225.6,18.3"/>
					<path class="st1" d="M292.3,19.5c-1-0.9-2.1-1.5-3.4-1.8c-1.3-0.3-2.6-0.4-3.9-0.3c-0.8,0.1-1.5,0.3-2.3,0.7s-1.4,0.9-1.9,1.5
						c-0.5,0.6-0.9,1.3-1,2.1c-0.2,0.8-0.1,1.7,0.3,2.6c0.3,0.8,0.9,1.5,1.6,2.1c0.7,0.5,1.6,1,2.5,1.3c0.9,0.4,1.8,0.7,2.8,1
						c1,0.3,1.8,0.7,2.6,1.1c0.8,0.4,1.4,0.9,1.9,1.5c0.5,0.6,0.7,1.3,0.6,2.3c-0.1,0.7-0.2,1.3-0.5,1.8c-0.3,0.5-0.7,1-1.3,1.3
						c-0.9,0.5-2,0.8-3.1,0.7c-1.2,0-2.3-0.2-3.3-0.7c-1.1-0.4-2-1-2.8-1.8c-0.8-0.8-1.4-1.7-1.6-2.7l-0.1,0.5
						c-0.1,0.3-0.1,0.6-0.2,1c-0.1,0.4-0.2,0.7-0.3,1l-0.1,0.5c0.4,0.3,0.9,0.6,1.5,0.9c0.6,0.3,1.3,0.5,2,0.8
						c0.7,0.2,1.5,0.4,2.2,0.6c0.8,0.1,1.5,0.2,2.2,0.2c0.7,0,1.4,0,2.1-0.1c0.6-0.1,1.2-0.3,1.7-0.7c0.3-0.2,0.6-0.4,0.8-0.6
						s0.5-0.5,0.7-0.8c0.2-0.3,0.4-0.6,0.6-0.9c0.2-0.3,0.3-0.6,0.4-0.9c0.3-0.9,0.3-1.7,0.1-2.5c-0.2-0.8-0.5-1.4-1-2
						c-0.5-0.6-1.1-1.1-1.8-1.5c-0.7-0.4-1.5-0.8-2.3-1c-0.4-0.1-0.8-0.3-1.4-0.5c-0.6-0.2-1.2-0.5-1.9-0.7c-0.7-0.3-1.3-0.6-1.9-1
						c-0.6-0.4-1.1-0.8-1.5-1.3c-0.4-0.5-0.6-0.9-0.7-1.5c-0.1-0.5,0.1-1.1,0.5-1.6c0.5-0.7,1.1-1.2,1.9-1.6
						c0.7-0.4,1.5-0.6,2.3-0.6c0.8-0.1,1.6,0,2.4,0.2c0.8,0.2,1.5,0.5,2.1,0.9c0.6,0.4,1.1,0.9,1.6,1.5c0.4,0.6,0.6,1.2,0.7,1.9
						L292.3,19.5L292.3,19.5z"/>
					<path class="st1" d="M181.1,37.1c-0.2-0.3-0.5-0.6-0.8-1c-0.3-0.4-0.6-0.9-0.9-1.5c-0.3-0.5-0.7-1.1-1-1.7l-4.7-8.1
						c0.7,0,1.3-0.1,2-0.2c0.6-0.1,1.2-0.3,1.7-0.6c0.5-0.3,0.9-0.6,1.1-1.1c0.3-0.4,0.4-1,0.4-1.7c0-0.9-0.2-1.6-0.7-2.1
						c-0.5-0.5-1.1-0.8-1.8-1.1s-1.6-0.4-2.5-0.4c-0.9,0-1.8-0.1-2.7-0.1h-7.4v0.1c0.1,0,0.1,0.1,0.2,0.3c0.1,0.2,0.1,0.6,0.2,1
						c0.1,0.4,0.1,0.9,0.1,1.4c0,0.5,0.1,1.1,0.1,1.8v10.6c0,0.7,0,1.2-0.1,1.8s-0.1,1-0.1,1.5c-0.1,0.4-0.1,0.7-0.2,0.9
						s-0.1,0.3-0.2,0.3v0.1h3.5v-0.1c-0.1,0-0.1-0.1-0.2-0.3s-0.1-0.5-0.2-0.9c-0.1-0.4-0.1-0.9-0.1-1.5c0-0.5-0.1-1.2-0.1-1.8v-8
						h4.4l4.8,8.2c0.4,0.6,0.7,1.2,1,1.8c0.3,0.5,0.6,1,0.7,1.4c0.2,0.4,0.3,0.7,0.4,0.9c0.1,0.2,0.1,0.3,0,0.3v0.1h3.5v-0.1
						C181.5,37.5,181.3,37.4,181.1,37.1L181.1,37.1z M166.7,24.8v-5.2c0-0.5,0.1-0.9,0.4-1.3c0.2-0.3,0.7-0.5,1.4-0.5h2.7
						c1.9,0,3.2,0.2,4.1,0.7c0.9,0.5,1.3,1.4,1.3,2.8s-0.4,2.3-1.3,2.8c-0.9,0.5-2.2,0.7-4.1,0.7L166.7,24.8L166.7,24.8z"/>
				</g>
				<g>
					<path class="st1" d="M451.4,21.3c-0.5-0.7-1.1-1.2-1.8-1.7c-0.7-0.5-1.6-0.8-2.5-1.1c-0.9-0.2-1.8-0.3-2.7-0.3h-5.8v0.1
						c0.1,0,0.1,0.1,0.2,0.3c0.1,0.2,0.1,0.6,0.2,1c0.1,0.4,0.1,0.9,0.1,1.4c0,0.5,0.1,1.1,0.1,1.8v10.6c0,0.7,0,1.2-0.1,1.8
						s-0.1,1-0.1,1.5c-0.1,0.4-0.1,0.7-0.2,0.9c-0.1,0.2-0.1,0.3-0.2,0.3v0.1h3.5V38c-0.1,0-0.1-0.1-0.2-0.3
						c-0.1-0.2-0.1-0.5-0.2-0.9c-0.1-0.4-0.1-0.9-0.1-1.5c0-0.5-0.1-1.2-0.1-1.8v-4.3h2.9c0.9,0,1.8-0.1,2.7-0.3
						c0.9-0.2,1.7-0.6,2.5-1.1c0.7-0.5,1.4-1,1.8-1.7c0.5-0.7,0.7-1.5,0.7-2.4S451.8,22,451.4,21.3L451.4,21.3z M449.5,25.6
						c-0.2,0.6-0.6,1.2-1,1.7c-0.4,0.5-1,0.9-1.7,1.2c-0.7,0.3-1.5,0.5-2.4,0.5h-2.9v-8.9c0-0.5,0.1-0.9,0.4-1.3
						c0.2-0.3,0.7-0.5,1.4-0.5h1.2c0.9,0,1.7,0.1,2.4,0.5s1.2,0.7,1.7,1.2c0.5,0.5,0.8,1.1,1,1.7c0.2,0.6,0.3,1.3,0.3,2
						S449.7,25,449.5,25.6z"/>
					<path class="st1" d="M436,26.9c-0.1-1.3-0.6-2.6-1.3-3.8s-1.6-2.2-2.6-3c-1.1-0.8-2.2-1.3-3.5-1.7c-1.2-0.3-2.5-0.4-3.8-0.3
						c-1.3,0.1-2.5,0.6-3.7,1.3c-1.2,0.7-2.2,1.6-3,2.6c-0.8,1.1-1.4,2.2-1.7,3.5c-0.3,1.2-0.4,2.5-0.3,3.8c0.1,1.3,0.6,2.6,1.3,3.8
						c0.7,1.2,1.5,2.2,2.6,3c1.1,0.8,2.2,1.3,3.5,1.7c1.2,0.3,2.5,0.4,3.8,0.3c1.3-0.2,2.6-0.6,3.8-1.3c1.2-0.7,2.2-1.5,3-2.6
						c0.8-1.1,1.3-2.2,1.7-3.5C436.1,29.5,436.2,28.3,436,26.9L436,26.9z M434.3,31.5c-0.1,1.1-0.5,2.2-1.1,3.1
						c-0.5,0.9-1.3,1.6-2.2,2.2c-0.9,0.5-1.9,0.8-3,0.9c-1.1,0-2.1-0.2-3.2-0.6c-1-0.4-2-1.1-3-1.9c-0.9-0.8-1.7-1.8-2.4-3
						s-1.1-2.4-1.4-3.6c-0.2-1.3-0.3-2.5-0.1-3.6c0.1-1.1,0.5-2.1,1.1-3.1c0.6-0.9,1.3-1.6,2.2-2.2c0.9-0.5,1.9-0.8,3-0.8
						c1.1,0,2.1,0.2,3.2,0.6c1.1,0.4,2.1,1,3,1.9c1,0.8,1.8,1.8,2.5,3s1.1,2.4,1.4,3.6C434.5,29.1,434.5,30.3,434.3,31.5z"/>
					<path class="st1" d="M404.3,22.9c0-0.6,0-1.2,0.1-1.8s0.1-1,0.1-1.5c0.1-0.4,0.1-0.7,0.2-1c0.1-0.2,0.1-0.3,0.2-0.3v-0.1h-3.5
						v0.1c0.1,0,0.1,0.1,0.2,0.3c0.1,0.2,0.1,0.6,0.2,1c0.1,0.4,0.1,0.9,0.1,1.5c0,0.5,0.1,1.1,0.1,1.8v10.6c0,0.7,0,1.2-0.1,1.8
						s-0.1,1-0.1,1.5c-0.1,0.4-0.1,0.7-0.2,0.9c-0.1,0.2-0.1,0.3-0.2,0.3v0.1H413l0.7-4.2l-0.1,0c-0.1,0.6-0.4,1.1-0.8,1.6
						c-0.4,0.5-1,0.9-1.6,1.3c-0.6,0.4-1.3,0.7-2.1,0.9c-0.7,0.2-1.5,0.3-2.2,0.3h-0.9c-0.7,0-1.1-0.2-1.4-0.5
						c-0.2-0.3-0.4-0.7-0.4-1.3L404.3,22.9L404.3,22.9z"/>
					<path class="st1" d="M457.8,25.4c0.6,0,1.2,0,1.8,0.1c0.5,0,1,0.1,1.4,0.1c0.4,0.1,0.8,0.1,1,0.2c0.2,0.1,0.3,0.1,0.3,0.2h0.1
						v-1.4h-0.1c0,0.1-0.1,0.1-0.3,0.2s-0.5,0.1-1,0.2c-0.4,0.1-0.9,0.1-1.4,0.1c-0.5,0-1.1,0.1-1.8,0.1h-0.4v-5.2
						c0-0.5,0.1-0.9,0.4-1.3c0.2-0.3,0.7-0.5,1.3-0.5h0.9c0.7,0,1.5,0.1,2.1,0.2c0.7,0.1,1.3,0.3,1.8,0.6c0.5,0.3,0.9,0.6,1.3,0.9
						c0.3,0.4,0.6,0.8,0.7,1.2l0.1,0l-0.8-3h-10.7v0.1c0.1,0,0.1,0.1,0.2,0.4c0.1,0.2,0.1,0.5,0.2,1c0.1,0.4,0.1,0.9,0.1,1.4
						c0,0.5,0.1,1.1,0.1,1.8v10.6c0,0.7,0,1.2-0.1,1.8s-0.1,1-0.1,1.5c-0.1,0.4-0.1,0.7-0.2,0.9s-0.1,0.3-0.2,0.3v0.1h11.6l0.7-4.2
						l-0.1,0c-0.1,0.6-0.4,1.1-0.8,1.6c-0.4,0.5-1,0.9-1.6,1.3c-0.6,0.4-1.3,0.7-2.1,0.9c-0.8,0.2-1.5,0.3-2.3,0.3h-0.9
						c-0.6,0-1.1-0.2-1.3-0.5c-0.2-0.3-0.4-0.7-0.4-1.3V25.4L457.8,25.4L457.8,25.4z"/>
					<path class="st1" d="M355.3,25.4c0.6,0,1.2,0,1.8,0.1c0.5,0,1,0.1,1.4,0.1c0.4,0.1,0.8,0.1,1,0.2c0.2,0.1,0.3,0.1,0.3,0.2h0.1
						v-1.4h-0.1c0,0.1-0.1,0.1-0.3,0.2s-0.5,0.1-1,0.2c-0.4,0.1-0.9,0.1-1.4,0.1c-0.5,0-1.1,0.1-1.8,0.1h-0.4v-5.2
						c0-0.5,0.1-0.9,0.4-1.3c0.2-0.3,0.7-0.5,1.3-0.5h0.9c0.7,0,1.5,0.1,2.1,0.2c0.7,0.1,1.3,0.3,1.8,0.6c0.5,0.3,0.9,0.6,1.3,0.9
						c0.3,0.4,0.6,0.8,0.7,1.2l0.1,0l-0.8-3H352v0.1c0.1,0,0.1,0.1,0.2,0.4c0.1,0.2,0.1,0.5,0.2,1c0.1,0.4,0.1,0.9,0.1,1.4
						c0,0.5,0.1,1.1,0.1,1.8v10.6c0,0.7,0,1.2-0.1,1.8s-0.1,1-0.1,1.5c-0.1,0.4-0.1,0.7-0.2,0.9S352.1,38,352,38v0.1h11.6l0.7-4.2
						l-0.1,0c-0.1,0.6-0.4,1.1-0.8,1.6c-0.4,0.5-1,0.9-1.6,1.3c-0.6,0.4-1.3,0.7-2.1,0.9c-0.8,0.2-1.5,0.3-2.3,0.3h-0.9
						c-0.6,0-1.1-0.2-1.3-0.5c-0.2-0.3-0.4-0.7-0.4-1.3V25.4L355.3,25.4L355.3,25.4z"/>
					<path class="st1" d="M389.9,25.4c0.6,0,1.2,0,1.8,0.1c0.5,0,1,0.1,1.4,0.1c0.4,0.1,0.8,0.1,1,0.2c0.2,0.1,0.3,0.1,0.3,0.2h0.1
						v-1.4h-0.1c0,0.1-0.1,0.1-0.3,0.2s-0.5,0.1-1,0.2c-0.4,0.1-0.9,0.1-1.4,0.1c-0.5,0-1.1,0.1-1.8,0.1h-0.4v-5.2
						c0-0.5,0.1-0.9,0.4-1.3c0.2-0.3,0.7-0.5,1.3-0.5h0.9c0.7,0,1.5,0.1,2.1,0.2c0.7,0.1,1.3,0.3,1.8,0.6c0.5,0.3,0.9,0.6,1.3,0.9
						c0.3,0.4,0.6,0.8,0.7,1.2l0.1,0l-0.8-3h-10.7v0.1c0.1,0,0.1,0.1,0.2,0.4c0.1,0.2,0.1,0.5,0.2,1c0.1,0.4,0.1,0.9,0.1,1.4
						c0,0.5,0.1,1.1,0.1,1.8v10.6c0,0.7,0,1.2-0.1,1.8s-0.1,1-0.1,1.5c-0.1,0.4-0.1,0.7-0.2,0.9s-0.1,0.3-0.2,0.3v0.1h11.6L399,34
						l-0.1,0c-0.1,0.6-0.4,1.1-0.8,1.6c-0.4,0.5-1,0.9-1.6,1.3c-0.6,0.4-1.3,0.7-2.1,0.9c-0.8,0.2-1.5,0.3-2.3,0.3h-0.9
						c-0.6,0-1.1-0.2-1.3-0.5c-0.2-0.3-0.4-0.7-0.4-1.3V25.4L389.9,25.4L389.9,25.4z"/>
					<path class="st1" d="M348.8,24.5c-0.5-1.2-1.2-2.3-2.2-3.2c-1-0.9-2.2-1.7-3.7-2.2c-1.5-0.6-3.2-0.9-5.1-0.9h-5.7v0.1
						c0.1,0,0.1,0.1,0.2,0.3c0.1,0.2,0.1,0.6,0.2,1c0.1,0.4,0.1,0.9,0.1,1.4c0,0.5,0.1,1.1,0.1,1.8v10.6c0,0.7,0,1.2-0.1,1.8
						s-0.1,1-0.1,1.5c-0.1,0.4-0.1,0.7-0.2,0.9c-0.1,0.2-0.1,0.3-0.2,0.3v0.1h5.7c2,0,3.7-0.3,5.1-0.8c1.5-0.6,2.7-1.3,3.7-2.3
						c1-0.9,1.7-2,2.2-3.2c0.5-1.2,0.7-2.5,0.7-3.7S349.3,25.6,348.8,24.5L348.8,24.5z M346.7,31.9c-0.4,1.2-1,2.2-1.8,3.1
						s-1.8,1.7-3,2.2s-2.6,0.8-4.2,0.8h-1.1c-0.7,0-1.1-0.2-1.4-0.5c-0.2-0.3-0.4-0.7-0.4-1.3V20.1c0-0.5,0.1-0.9,0.4-1.3
						c0.2-0.3,0.7-0.5,1.4-0.5h1.1c1.6,0,3,0.3,4.2,0.8s2.2,1.3,3,2.2c0.8,0.9,1.4,2,1.8,3.1c0.4,1.2,0.6,2.4,0.6,3.7
						S347.1,30.7,346.7,31.9z"/>
					<path class="st1" d="M381,22.4c0.2-0.7,0.5-1.3,0.9-1.9c0.3-0.5,0.7-0.9,1-1.3c0.3-0.3,0.6-0.6,0.9-0.7s0.4-0.2,0.5-0.2v-0.1
						h-3.8v0.1c0.1,0,0.2,0.1,0.3,0.2s0.2,0.4,0.3,0.7c0.1,0.3,0.1,0.7,0.1,1.3c0,0.5-0.1,1.2-0.3,1.9l-4.4,12.4l-4.6-12
						c-0.2-0.6-0.4-1.2-0.5-1.7c-0.1-0.5-0.2-1-0.3-1.5c0-0.4,0-0.8,0-1c0-0.2,0.1-0.3,0.1-0.3v-0.1h-4.4v0.1c0.1,0,0.3,0.1,0.5,0.3
						c0.2,0.2,0.4,0.5,0.7,1c0.2,0.4,0.5,1,0.8,1.5c0.3,0.6,0.6,1.3,0.8,2l5.8,15h0.1L381,22.4L381,22.4z"/>
					<path class="st1" d="M503.3,20c-1-0.9-2.1-1.5-3.4-1.8c-1.3-0.3-2.6-0.4-3.9-0.3c-0.8,0.1-1.5,0.3-2.3,0.7s-1.4,0.9-1.9,1.5
						c-0.5,0.6-0.9,1.3-1,2.1c-0.2,0.8-0.1,1.7,0.3,2.6c0.3,0.8,0.9,1.5,1.6,2.1c0.7,0.5,1.6,1,2.5,1.3c0.9,0.4,1.8,0.7,2.8,1
						c1,0.3,1.8,0.7,2.6,1.1c0.8,0.4,1.4,0.9,1.9,1.5c0.5,0.6,0.7,1.3,0.6,2.3c-0.1,0.7-0.2,1.3-0.5,1.8c-0.3,0.5-0.7,1-1.3,1.3
						c-0.9,0.5-2,0.8-3.1,0.7c-1.2,0-2.3-0.2-3.3-0.7c-1.1-0.4-2-1-2.8-1.8c-0.8-0.8-1.4-1.7-1.6-2.7l-0.1,0.5
						c-0.1,0.3-0.1,0.6-0.2,1c-0.1,0.4-0.2,0.7-0.3,1l-0.1,0.5c0.4,0.3,0.9,0.6,1.5,0.9c0.6,0.3,1.3,0.5,2,0.8
						c0.7,0.2,1.5,0.4,2.2,0.6c0.8,0.1,1.5,0.2,2.2,0.2c0.7,0,1.4,0,2.1-0.1c0.6-0.1,1.2-0.3,1.7-0.7c0.3-0.2,0.6-0.4,0.8-0.6
						s0.5-0.5,0.7-0.8c0.2-0.3,0.4-0.6,0.6-0.9c0.2-0.3,0.3-0.6,0.4-0.9c0.3-0.9,0.3-1.7,0.1-2.5c-0.2-0.8-0.5-1.4-1-2
						c-0.5-0.6-1.1-1.1-1.8-1.5c-0.7-0.4-1.5-0.8-2.3-1c-0.4-0.1-0.8-0.3-1.4-0.5c-0.6-0.2-1.2-0.5-1.9-0.7c-0.7-0.3-1.3-0.6-1.9-1
						c-0.6-0.4-1.1-0.8-1.5-1.3c-0.4-0.5-0.6-0.9-0.7-1.5c-0.1-0.5,0.1-1.1,0.5-1.6c0.5-0.7,1.1-1.2,1.9-1.6
						c0.7-0.4,1.5-0.6,2.3-0.6c0.8-0.1,1.6,0,2.4,0.2c0.8,0.2,1.5,0.5,2.1,0.9c0.6,0.4,1.1,0.9,1.6,1.5c0.4,0.6,0.6,1.2,0.7,1.9
						L503.3,20L503.3,20z"/>
					<path class="st1" d="M486.5,37.7c-0.2-0.3-0.5-0.6-0.8-1c-0.3-0.4-0.6-0.9-0.9-1.5c-0.3-0.5-0.7-1.1-1-1.7l-4.7-8.1
						c0.7,0,1.3-0.1,2-0.2c0.6-0.1,1.2-0.3,1.7-0.6s0.9-0.6,1.1-1.1c0.3-0.4,0.4-1,0.4-1.7c0-0.9-0.2-1.6-0.7-2.1
						c-0.5-0.5-1.1-0.8-1.8-1.1s-1.6-0.4-2.5-0.4c-0.9,0-1.8-0.1-2.7-0.1h-7.4v0.1c0.1,0,0.1,0.1,0.2,0.3c0.1,0.2,0.1,0.6,0.2,1
						c0.1,0.4,0.1,0.9,0.1,1.4c0,0.5,0.1,1.1,0.1,1.8v10.6c0,0.7,0,1.2-0.1,1.8s-0.1,1-0.1,1.5c-0.1,0.4-0.1,0.7-0.2,0.9
						c-0.1,0.2-0.1,0.3-0.2,0.3v0.1h3.5V38c-0.1,0-0.1-0.1-0.2-0.3c-0.1-0.2-0.1-0.5-0.2-0.9c-0.1-0.4-0.1-0.9-0.1-1.5
						c0-0.5-0.1-1.2-0.1-1.8v-8h4.4l4.8,8.2c0.4,0.6,0.7,1.2,1,1.8c0.3,0.5,0.5,1,0.7,1.4c0.2,0.4,0.3,0.7,0.4,0.9
						c0.1,0.2,0.1,0.3,0,0.3v0.1h3.5V38C486.9,38,486.7,37.9,486.5,37.7L486.5,37.7z M472.2,25.3v-5.2c0-0.5,0.1-0.9,0.4-1.3
						c0.2-0.3,0.7-0.5,1.4-0.5h2.7c1.9,0,3.2,0.2,4.1,0.7c0.9,0.5,1.3,1.4,1.3,2.8s-0.5,2.3-1.3,2.8c-0.9,0.5-2.2,0.7-4.1,0.7
						L472.2,25.3L472.2,25.3z"/>
				</g>
				<path class="st1" d="M324.9,33.4c0,0.5,0,1-0.1,1.6c-0.1,0.5-0.2,1-0.4,1.4c-0.2,0.4-0.5,0.8-0.9,1.1c-0.4,0.3-0.9,0.4-1.5,0.4
					c-0.5,0-1.1-0.1-1.7-0.3s-1.2-0.5-1.8-0.8c-0.6-0.3-1.2-0.7-1.8-1.2c-0.6-0.4-1.1-0.8-1.7-1.3c0.3-0.7,0.6-1.3,0.8-2
					c0.2-0.7,0.4-1.4,0.5-2.2c0.2-1.5,0.6-2.8,1-3.7c0.4-0.9,0.8-1.6,1.3-2.1c0.5-0.5,0.9-0.8,1.4-1c0.5-0.1,0.9-0.2,1.3-0.2
					c0.4,0,0.7,0.1,0.9,0.2l0.4,0.1l-1-2.5l-0.3,0c-0.2,0-0.5,0-0.8,0.1c-0.3,0.1-0.6,0.3-1,0.6s-0.8,0.8-1.2,1.5
					c-0.4,0.7-0.8,1.5-1.2,2.6c-0.4,1.1-0.7,2.5-1,4.2c-0.1,0.7-0.3,1.5-0.5,2.1c-0.2,0.7-0.5,1.4-0.8,2c-0.6-0.5-1.2-1.1-2-1.8
					c-0.7-0.7-1.4-1.4-2.1-2.1c-0.5-0.5-0.5-0.5-2.1-2.4c-0.3-0.3-0.5-0.6-0.7-0.8c0.3-0.5,0.6-1.1,1-1.8c1.2-2.2,1.8-3.2,2.2-4.5
					c0.4-1.2,0.5-1.8,0.4-2.3c-0.1-1.1-0.6-1.8-0.7-2c-0.4-0.6-0.9-1-1.6-1.3c-0.7-0.3-1.5-0.4-2.4-0.3c-1.1,0.1-2,0.4-2.8,0.9
					c-0.7,0.6-1.2,1.3-1.5,2.4c-0.3,1.3-0.2,2.6,0.4,4.1c0.5,1.5,1.2,2.9,2.1,4.2c-1.2,0.9-2.3,1.8-3.2,2.9c-0.8,1-1.4,2-1.6,3.2
					c0,0.1,0,0.2,0,0.3c0,0,0,0.1,0,0.1c-0.2,1-0.1,2,0.2,3c0.4,1,0.9,1.9,1.7,2.7c0.4,0.4,0.8,0.8,1.3,1c0.5,0.2,1,0.4,1.5,0.5
					c0.5,0.1,1.1,0.1,1.6,0.1s1.1-0.1,1.6-0.2c1.2-0.3,2.3-0.8,3.3-1.5c1-0.8,1.9-1.7,2.6-2.8c1.1,0.8,2.3,1.5,3.6,2
					c1.2,0.6,2.5,0.8,3.6,0.7c0.7-0.1,1.3-0.2,1.8-0.5c0.5-0.3,0.9-0.7,1.2-1.2c0.1-0.2,0.5-0.8,0.6-1.6
					C325,34.5,325,33.9,324.9,33.4L324.9,33.4z M303.9,20.5c-0.3-0.9-0.4-1.8-0.3-2.6c0.1-0.8,0.5-1.5,1.2-2.1
					c0.2-0.2,0.5-0.4,0.9-0.5c0.3-0.1,0.7-0.2,1-0.2c0.4,0,0.8,0,1.1,0.1c0.4,0.1,0.8,0.3,1.1,0.6c0.6,0.5,1,1.2,1.2,2
					c0.2,0.8,0.3,1.6,0.2,2.4c-0.2,1.2-0.7,2.1-1.1,2.9c-0.1,0.2-0.3,0.6-0.5,0.9c-0.2,0.4-0.4,0.8-0.7,1.2
					c-0.2,0.4-0.5,0.8-0.9,1.4c-1-1.3-1.7-2.4-2.1-3.3C304.6,22.3,304.2,21.4,303.9,20.5L303.9,20.5z M312.3,37.2
					c-0.6,0.4-1.2,0.8-1.8,1c-0.6,0.2-1.3,0.4-2.1,0.4c-0.7,0-1.5-0.1-2.2-0.3c-0.7-0.2-1.3-0.6-1.9-1c-0.5-0.5-1-1-1.4-1.5
					c-0.4-0.6-0.6-1.2-0.8-1.9c-0.1-0.5-0.2-1.1-0.2-1.6c0-0.1,0-0.2,0-0.3c0,0,0-0.1,0-0.1c0.1-1,0.5-1.9,1.1-2.8
					c0.6-0.9,1.3-1.6,2.1-2.3c0.3,0.5,0.6,0.9,1,1.4c0.1,0.2,0.3,0.4,0.4,0.5c0.2,0.2,0.3,0.4,0.5,0.6c0.7,0.8,1.5,1.6,2.2,2.4
					c0.8,0.8,1.5,1.5,2.3,2.2c0.8,0.7,1.5,1.3,2.2,1.8C313.4,36.3,312.9,36.8,312.3,37.2L312.3,37.2z"/>
			</g>
		</g>
		<g>
			<path class="st0" d="M102.2,35.3c-2.8,0.7-4.4,0.6-7.2,0.8c-6.4,0.6-10.6,1-13.6,2.8c-1.5,0.9-3.9,3-5.5,7.5
				c0.2,0.6,0.4,1.1,0.6,1.7c0.8-1.9,1.9-3.7,3.1-5.2c3.8-5,10.8-5.6,16.3-5.8c5.4-0.2,11-0.5,18.2-5.3c-0.2-1.4,0.1-3-0.7-4.2
				C111.4,32.2,107.7,33.9,102.2,35.3L102.2,35.3z"/>
			<path class="st0" d="M91,64.3c-0.4,0.2-0.2,1.5-0.3,2C87.1,82.8,65,59.3,59.9,53.2c-0.5-0.6-1-1.1-1.3-1.5
				c3.5-6.9,12-17.8,2.5-22.7c-4.7-1.9-11.5,0.1-12.5,5.6c-1.2,5.3,1.7,11.2,4.7,15.8c-4.3,3-8.5,6.9-9.2,12.2
				c-0.7,4.1,0.9,7.7,3.7,10.7c4.6,5.1,12.8,3.7,17.9,0c1.9-1.4,3.5-3.2,4.9-5.2c4,2.7,8.9,5.6,13.6,5.2
				C88.8,73.1,91.3,68.9,91,64.3L91,64.3z M51.2,39c-1.6-4.8-0.3-9.7,5.3-10.2c5.1-0.5,7.6,5.4,6.9,9.6c-0.5,3.3-1.7,4.7-3,7.2
				c-1,1.7-1.7,3-3,4.8C54.3,46.2,52.6,43.2,51.2,39z M67,70.6c-7.9,6.2-20,0.8-19.7-9.5c0.1-3.5,3.3-8.5,6.1-10.3
				c0.8,1.2,1.7,2.4,2.6,3.6c4,4.9,8.9,9.7,13.9,13.4C69.1,68.9,68.1,69.8,67,70.6L67,70.6z"/>
			<path class="st0" d="M69.7,63.4c0.5,0.5,1,0.9,1.5,1.3C70.7,64.3,70.2,63.9,69.7,63.4z"/>
			<path class="st0" d="M67.5,61.3c0.1,0.1,0.2,0.1,0.2,0.2C67.6,61.4,67.5,61.3,67.5,61.3z"/>
			<path class="st0" d="M55.6,53.9c-0.1-0.2-0.3-0.3-0.4-0.5C55.4,53.6,55.5,53.7,55.6,53.9z"/>
			<path class="st0" d="M47.3,60.5c0,0.1,0,0.2,0,0.3C47.3,60.7,47.3,60.6,47.3,60.5z"/>
			<path class="st0" d="M44.1,61.8c0,0.2-0.1,0.4-0.1,0.5C44,62.2,44.1,62,44.1,61.8z"/>
			<g>
				<path class="st1" d="M119,21.4c-5.6-13.6-20.1-20-34.9-19.8H66.3v0.4c1.8,1,2,11.7,2,14.4c-0.2,7.7,0.5,36.6-0.6,43.7
					c0,0.2-0.1,0.5-0.1,0.7c0.2,0.2,0.3,0.3,0.5,0.5c1.2,1.2,2.4,2.2,3.4,3.1c2.7-5,1.9-6.9,2.8-12.5c0.2-0.8,0.7-3.9,1-4.8
					c0.2-0.2,0-39.4,0.1-39.6c0.2-6,3.8-5.5,8.7-5.5c5.1,0,9.6,0.9,13.3,2.6c12.6,5.5,17.9,19.7,16.6,32.4
					c-0.9,10.8-7.2,20.8-17.6,25c-1.6,0.7-3.3,1.2-5.2,1.5c0,0.2,0,0.4,0,0.7c12-1.4,23.3-8.3,27.7-19.4
					C122.1,37.3,122.1,28.9,119,21.4L119,21.4z"/>
				<path class="st1" d="M80.8,64.2c-6.6,0.2-5.3-6-5.4-10.4c-1,3.3-0.7,3.9-1.5,7.7c-0.2,0.8-0.6,1.9-1.3,3.2h11.6
					c2.2,0,4.2-0.1,6.2-0.3c0-0.2,0-0.4,0-0.6C87.6,64.3,83.8,64.2,80.8,64.2L80.8,64.2z"/>
				<path class="st1" d="M55.3,53.4c-0.1-0.2-0.2,0.2-0.3,0.2c-1.7,2.7-4,4.8-6.8,6.4c-0.5,0.3-1,0.3-0.9,1c3.2-1.7,6.1-3.9,8.5-6.4
					C56.3,54.3,55.5,53.8,55.3,53.4z"/>
				<path class="st1" d="M61.1,4.1c0.8,5.7-4.2,4.8-8.9,2c-6.2-3.6-12.5-5.6-18.8-6C18.5-1.2,4.6,9.7,1.1,23.9
					C-3.5,41,6.7,59.1,23.9,63.6c4,1.1,8.1,1.3,12.4,0.8c2.5-0.3,5-0.9,7.3-1.8c0.4,0,0.3-0.5,0.4-0.8c0-0.1-0.2,0-0.3,0
					c-1.7,0.5-3.4,0.7-5.2,0.8C15,63-2.7,31.9,9.1,11.7C13,5.2,20.9,0.8,28.2,1.5c5.4,0.6,9.9,3.7,14.5,6.4C46,9.7,51,12,54.4,11.8
					c4.4-0.1,8-3.3,6.9-7.7L61.1,4.1L61.1,4.1z"/>
			</g>
		</g>
	</g>
</g>
</svg>
