<?xml version="1.0" encoding="utf-8"?>
<!-- Generator: Adobe Illustrator 27.3.1, SVG Export Plug-In . SVG Version: 6.00 Build 0)  -->
<svg version="1.1" id="Layer_1" xmlns="http://www.w3.org/2000/svg" xmlns:xlink="http://www.w3.org/1999/xlink" x="0px" y="0px"
	 viewBox="0 0 649.8 750.3" style="enable-background:new 0 0 649.8 750.3;" xml:space="preserve">
<style type="text/css">
	.st0{fill:#FFFFFF;}
</style>
<g>
	<g>
		<path class="st0" d="M530.8,373.4c-14.1,3.5-21.8,2.8-35.6,4.2c-31.6,3-52.5,5-67.3,14c-7.5,4.6-19.3,14.9-27.1,37
			c0.9,2.8,1.8,5.7,3,8.6c4.2-9.3,9.5-18.3,15.5-25.9c18.8-24.6,53.8-28,80.8-28.6c26.9-1.1,54.7-2.2,90.5-26.3
			c-0.8-7,0.3-14.8-3.2-20.9C576.5,357.9,558.2,366.6,530.8,373.4z"/>
		<path class="st0" d="M475.4,517.3c-1.8,1.2-0.8,7.3-1.7,10.1c-17.9,81.5-127.6-35.1-152.9-65.3c-2.7-3-5-5.6-6.5-7.2
			c17.5-34.1,59.7-88.3,12.5-112.5c-23.1-9.3-56.9,0.5-62,28c-5.9,26.1,8.5,55.5,23.1,78.2c-21.4,15-42.1,34.1-45.8,60.3
			c-3.5,20.1,4.5,38.3,18.2,53.2c22.8,25,63.7,18.2,88.6-0.1c9.4-7.1,17.5-15.8,24.2-26c19.7,13.2,44.1,27.6,67.6,26
			C464.1,561.1,476.8,540,475.4,517.3z M277.9,391.7c-7.8-24-1.4-48.1,26.4-50.8c25.2-2.4,37.6,26.6,34.2,47.7
			c-2.7,16.2-8.4,23.2-14.8,35.5c-4.8,8.6-8.6,15.1-14.9,24C293,427.2,284.8,412.8,277.9,391.7z M356.4,548.5
			c-39.3,30.5-99.2,4-97.9-47.1c0.3-17.2,16.6-42.4,30.4-51c3.9,5.9,8.3,12,12.8,17.7c19.7,24.4,44.1,48.3,69,66.4
			C366.7,539.9,361.9,544.6,356.4,548.5z"/>
		<path class="st0" d="M369.8,512.7c2.6,2.3,5,4.5,7.4,6.5C374.8,517.2,372.3,515,369.8,512.7z"/>
		<path class="st0" d="M358.6,502.3c0.4,0.4,0.7,0.7,1.1,1.1C359.3,503,358.9,502.6,358.6,502.3z"/>
		<rect x="474.7" y="517.4" class="st0" width="0" height="0"/>
		<path class="st0" d="M299.9,465.7c-0.7-0.9-1.3-1.7-2-2.6C298.6,464,299.3,464.9,299.9,465.7z"/>
		<path class="st0" d="M258.8,498.5c-0.1,0.5-0.1,1-0.1,1.5C258.7,499.5,258.7,499,258.8,498.5z"/>
		<path class="st0" d="M242.7,505.1c-0.2,0.9-0.4,1.8-0.5,2.7C242.3,506.9,242.5,506,242.7,505.1z"/>
		<g>
			<path class="st0" d="M614.3,304.6c-27.6-67.7-99.5-99.1-173.1-98.4c0,0-88.5,0-88.5,0v2.2c8.8,5,9.7,57.9,9.8,71.5
				c-0.9,38.1,2.7,181.8-3.1,216.9c-0.2,1.3-0.4,2.4-0.6,3.5c0.9,0.8,1.7,1.7,2.6,2.5c6.1,5.8,11.8,10.9,16.9,15.2
				c13.5-24.9,9.5-34.4,14-61.9c0.8-4,3.6-19.4,5.1-24c1.1-0.9,0-195.4,0.4-196.6c1.2-29.7,18.7-27.5,43.4-27.3
				c25.3,0,47.4,4.3,66.2,13c62.5,27.4,88.6,97.9,82.3,161c-4.6,53.8-35.6,103.2-87.2,123.9c-7.9,3.2-16.5,5.7-25.5,7.5
				c0,1.1,0.1,2.3,0,3.3c59.3-6.9,115.6-41.3,137.3-96.2C629.8,383.6,629.8,341.8,614.3,304.6z"/>
			<path class="st0" d="M424.7,517c-32.8,0.8-26.2-29.7-26.8-51.8c-5,16.3-3.3,19.3-7.6,38.4c-1.1,4.1-3.1,9.5-6.6,15.7h57.6
				c10.8,0,21.1-0.6,31-1.6c0.1-1,0.1-2,0.1-3.1C458.3,517.2,439.8,517.1,424.7,517z"/>
			<path class="st0" d="M298.1,463.3c-0.4-1-0.9,0.8-1.3,1.2c-8.5,13.2-19.7,23.7-33.6,31.5c-2.4,1.6-5.1,1.6-4.7,5.1
				c15.9-8.2,30.3-19.3,42-31.8C303.2,467.8,299.1,465.4,298.1,463.3z"/>
			<path class="st0" d="M327,218.5c3.9,28.3-21,23.7-44,10.1c-30.9-18-61.9-28-93.1-29.8c-74-6.6-143.1,47.8-160.6,117.9
				C6.5,401.5,57.2,491.6,142.6,513.9c19.9,5.2,40.4,6.6,61.5,4.1c12.5-1.4,24.6-4.4,36.4-8.8c2.2-0.2,1.7-2.3,2.2-4
				c0.1-0.3-1.2,0.2-1.5,0.3c-8.3,2.4-17,3.7-26.1,3.9C98.4,510.6,10.6,356.4,69.2,256.1c19.3-32,58.4-53.9,94.5-50.5
				c26.6,3.1,49.2,18.5,72,31.7c16.4,9,40.9,20.3,58.3,19.3c21.9-0.3,39.9-16.6,34.4-38.1C328.4,218.5,327,218.5,327,218.5z"/>
		</g>
	</g>
</g>
</svg>
